<?xml version="1.0" standalone="no"?>
<!DOCTYPE svg PUBLIC "-//W3C//DTD SVG 20010904//EN"
 "http://www.w3.org/TR/2001/REC-SVG-20010904/DTD/svg10.dtd">
<svg version="1.0" xmlns="http://www.w3.org/2000/svg"
 width="310.000000pt" height="310.000000pt" viewBox="0 0 310.000000 310.000000"
 preserveAspectRatio="xMidYMid meet">
<metadata>
Created by potrace 1.11, written by Peter Selinger 2001-2013
</metadata>
<g transform="translate(0.000000,310.000000) scale(0.100000,-0.100000)"
fill="#000000" stroke="none">
<path d="M1320 3079 c0 -11 -5 -30 -11 -41 -6 -12 -15 -76 -20 -142 -5 -67
-18 -184 -29 -261 -10 -77 -24 -230 -30 -340 -12 -242 -16 -286 -41 -485 -11
-85 -26 -267 -34 -405 -9 -137 -20 -284 -25 -325 -25 -185 -40 -343 -42 -437
-2 -97 -1 -104 23 -130 14 -15 34 -40 45 -54 35 -48 172 -213 217 -261 59 -65
83 -64 170 4 197 156 300 246 317 278 6 12 16 78 21 148 7 109 29 302 44 395
3 16 12 149 20 295 9 147 24 328 35 403 10 74 24 214 30 310 17 286 30 434 45
537 26 175 37 356 25 400 -13 49 -27 55 -192 76 -115 15 -158 27 -158 46 0 6
-80 10 -205 10 -201 0 -205 0 -205 -21z m535 -211 c16 -7 27 -22 30 -42 9 -49
-10 -275 -24 -289 -21 -21 -348 2 -388 28 -29 20 -36 61 -28 174 8 118 11 130
38 142 29 12 341 1 372 -13z m-142 -508 c66 -7 83 -12 108 -36 34 -33 35 -51
14 -199 -8 -55 -22 -221 -30 -370 -9 -148 -25 -334 -35 -413 -11 -79 -24 -218
-30 -310 -6 -92 -13 -208 -16 -259 -3 -50 -12 -99 -19 -109 -16 -23 -93 -28
-259 -16 -119 8 -131 11 -149 33 -17 21 -18 34 -13 109 3 47 11 168 16 269 6
101 17 229 25 285 23 167 34 290 45 506 6 113 20 270 30 350 23 182 24 184
149 174 47 -3 121 -9 164 -14z"/>
<path d="M371 2652 c-73 -37 -73 -36 -72 -353 1 -156 -3 -308 -8 -336 -10 -50
-18 -60 -136 -178 -69 -69 -132 -125 -140 -125 -12 0 -15 -15 -15 -70 0 -55 3
-70 15 -70 14 0 249 -233 270 -268 6 -10 11 -135 12 -322 1 -168 4 -317 7
-331 3 -15 19 -41 36 -58 l32 -31 138 0 c134 0 139 1 169 26 25 21 31 34 31
65 0 36 -3 40 -50 64 -27 14 -64 25 -82 25 -81 1 -88 27 -88 350 l0 269 -32
38 c-17 21 -67 74 -110 119 -61 62 -80 88 -85 117 -5 36 -3 40 99 144 58 60
110 118 117 131 9 16 12 97 11 280 -1 318 6 342 90 342 32 0 109 34 122 54 15
21 8 72 -12 94 -28 30 -81 42 -190 42 -71 0 -104 -4 -129 -18z"/>
<path d="M2457 2655 c-49 -17 -66 -40 -67 -87 0 -35 3 -39 50 -63 27 -14 63
-25 80 -25 84 0 91 -24 90 -342 -1 -183 2 -264 11 -280 7 -13 59 -71 117 -131
102 -104 104 -108 99 -144 -5 -29 -24 -55 -85 -117 -43 -45 -93 -98 -110 -119
l-32 -38 0 -269 c0 -323 -7 -349 -88 -350 -18 0 -55 -11 -82 -25 -47 -24 -50
-28 -50 -64 0 -31 6 -44 31 -65 30 -25 35 -26 169 -26 l138 0 32 31 c17 17 33
43 36 58 3 14 6 163 7 331 1 187 6 312 12 322 21 35 256 268 270 268 12 0 15
15 15 70 0 55 -3 70 -15 70 -8 0 -71 56 -140 125 -118 118 -126 128 -136 178
-5 28 -9 180 -8 336 1 317 1 316 -72 353 -43 22 -214 24 -272 3z"/>
</g>
</svg>
